REM DIRINDEX 1\2,1\3,1\4,1\5
REM DIRNAME folder01,folder02,folder03,folder04,folder05
TITLE ""
FILE "1Q_t_0040-0049.mp3" MP3
  TRACK 01 AUDIO
    TITLE "3:cjc004_1020"
    INDEX 01 00:00:00
  TRACK 02 AUDIO
    TITLE "0:"
    INDEX 01 00:01:03
  TRACK 03 AUDIO
    TITLE "4:cjc004_1021"
    INDEX 01 00:01:40
  TRACK 04 AUDIO
    TITLE "0:"
    INDEX 01 00:02:51
  TRACK 05 AUDIO
    TITLE "5:cjc004_1022"
    INDEX 01 00:03:08
  TRACK 06 AUDIO
    TITLE "0:"
    INDEX 01 00:08:48
  TRACK 07 AUDIO
    TITLE "3:cjc004_1023"
    INDEX 01 00:09:36
  TRACK 08 AUDIO
    TITLE "0:"
    INDEX 01 00:10:57
  TRACK 09 AUDIO
    TITLE "4:cjc004_1024"
    INDEX 01 00:10:72
  TRACK 10 AUDIO
    TITLE "0:"
    INDEX 01 00:12:09
  TRACK 11 AUDIO
    TITLE "5:cjc004_1025"
    INDEX 01 00:12:28
  TRACK 12 AUDIO
    TITLE "0:"
    INDEX 01 00:16:67
  TRACK 13 AUDIO
    TITLE "3:cjc004_1026"
    INDEX 01 00:17:51
  TRACK 14 AUDIO
    TITLE "0:"
    INDEX 01 00:18:70
  TRACK 15 AUDIO
    TITLE "4:cjc004_1027"
    INDEX 01 00:19:26
  TRACK 16 AUDIO
    TITLE "0:"
    INDEX 01 00:20:51
  TRACK 17 AUDIO
    TITLE "5:cjc004_1028"
    INDEX 01 00:21:08
  TRACK 18 AUDIO
    TITLE "0:"
    INDEX 01 00:24:69
  TRACK 19 AUDIO
    TITLE "3:cjc004_1029"
    INDEX 01 00:25:52
  TRACK 20 AUDIO
    TITLE "0:"
    INDEX 01 00:26:69
  TRACK 21 AUDIO
    TITLE "4:cjc004_1030"
    INDEX 01 00:27:28
  TRACK 22 AUDIO
    TITLE "0:"
    INDEX 01 00:28:39
  TRACK 23 AUDIO
    TITLE "5:cjc004_1031"
    INDEX 01 00:28:70
  TRACK 24 AUDIO
    TITLE "0:"
    INDEX 01 00:33:58
  TRACK 25 AUDIO
    TITLE "3:cjc004_1032"
    INDEX 01 00:34:40
  TRACK 26 AUDIO
    TITLE "0:"
    INDEX 01 00:35:57
  TRACK 27 AUDIO
    TITLE "4:cjc004_1033"
    INDEX 01 00:35:72
  TRACK 28 AUDIO
    TITLE "0:"
    INDEX 01 00:37:24
  TRACK 29 AUDIO
    TITLE "5:cjc004_1034"
    INDEX 01 00:37:56
  TRACK 30 AUDIO
    TITLE "0:"
    INDEX 01 00:42:55
  TRACK 31 AUDIO
    TITLE "3:cjc004_1035"
    INDEX 01 00:43:31
  TRACK 32 AUDIO
    TITLE "0:"
    INDEX 01 00:44:58
  TRACK 33 AUDIO
    TITLE "4:cjc004_1036"
    INDEX 01 00:45:08
  TRACK 34 AUDIO
    TITLE "0:"
    INDEX 01 00:46:37
  TRACK 35 AUDIO
    TITLE "5:cjc004_1037"
    INDEX 01 00:46:66
  TRACK 36 AUDIO
    TITLE "0:"
    INDEX 01 00:51:09
  TRACK 37 AUDIO
    TITLE "3:cjc004_1038"
    INDEX 01 00:51:71
  TRACK 38 AUDIO
    TITLE "0:"
    INDEX 01 00:53:04
  TRACK 39 AUDIO
    TITLE "4:cjc004_1039"
    INDEX 01 00:53:37
  TRACK 40 AUDIO
    TITLE "0:"
    INDEX 01 00:54:48
  TRACK 41 AUDIO
    TITLE "5:cjc004_1040"
    INDEX 01 00:55:08
  TRACK 42 AUDIO
    TITLE "0:"
    INDEX 01 00:59:55
  TRACK 43 AUDIO
    TITLE "3:cjc004_1041"
    INDEX 01 01:00:37
  TRACK 44 AUDIO
    TITLE "0:"
    INDEX 01 01:01:58
  TRACK 45 AUDIO
    TITLE "4:cjc004_1042"
    INDEX 01 01:02:08
  TRACK 46 AUDIO
    TITLE "0:"
    INDEX 01 01:03:18
  TRACK 47 AUDIO
    TITLE "5:cjc004_1043"
    INDEX 01 01:03:45
  TRACK 48 AUDIO
    TITLE "0:"
    INDEX 01 01:07:45
  TRACK 49 AUDIO
    TITLE "3:cjc004_1044"
    INDEX 01 01:08:38
  TRACK 50 AUDIO
    TITLE "0:"
    INDEX 01 01:09:63
  TRACK 51 AUDIO
    TITLE "4:cjc004_1045"
    INDEX 01 01:10:12
  TRACK 52 AUDIO
    TITLE "0:"
    INDEX 01 01:11:39
  TRACK 53 AUDIO
    TITLE "5:cjc004_1046"
    INDEX 01 01:11:62
  TRACK 54 AUDIO
    TITLE "0:"
    INDEX 01 01:17:28
  TRACK 55 AUDIO
    TITLE "3:cjc004_1047"
    INDEX 01 01:18:06
  TRACK 56 AUDIO
    TITLE "0:"
    INDEX 01 01:19:21
  TRACK 57 AUDIO
    TITLE "4:cjc004_1048"
    INDEX 01 01:19:56
  TRACK 58 AUDIO
    TITLE "0:"
    INDEX 01 01:20:67
  TRACK 59 AUDIO
    TITLE "5:cjc004_1049"
    INDEX 01 01:21:20
  TRACK 60 AUDIO
    TITLE "0:"
    INDEX 01 01:26:03
